<svg width="28" height="18" fill="none" xmlns="http://www.w3.org/2000/svg"><g clip-path="url(#a)"><path d="M6.1467.3782H12.83c.9329 0 1.5132.766 1.2955 1.709l-3.1115 13.4579c-.2196.9396-1.1536 1.7063-2.0872 1.7063H2.2442c-.9316 0-1.5132-.7667-1.2955-1.7063L4.0615 2.0872c.2176-.943 1.1512-1.709 2.0852-1.709Z" fill="#E21836"/><path d="M12.2738.3781h7.6855c.9327 0 .5121.766.2927 1.709l-3.111 13.4578c-.2183.9397-.1502 1.7064-1.0849 1.7064H8.3706c-.9347 0-1.5131-.7667-1.2936-1.7064L10.188 2.0871c.2209-.943 1.1525-1.709 2.0859-1.709Z" fill="#00447C"/><path d="M19.6544.3781h6.6832c.9342 0 1.5145.766 1.2951 1.709l-3.1111 13.4578c-.2195.9397-1.1542 1.7064-2.0883 1.7064h-6.6801c-.9347 0-1.5144-.7667-1.2955-1.7064l3.1115-13.4578c.2176-.943 1.1505-1.709 2.0852-1.709Z" fill="#007B84"/><path d="M7.8921 4.691c-.6873.007-.8902 0-.955-.0154-.025.1193-.4888 2.2744-.49 2.2763-.1.436-.1726.7468-.4193.9475-.1401.1167-.3037.173-.4933.173-.3048 0-.4824-.1525-.5122-.4416l-.0057-.0993s.0929-.584.0929-.5874c0 0 .4867-1.964.5739-2.2236a.1908.1908 0 0 0 .007-.0295c-.9474.0084-1.1154 0-1.127-.0154-.0063.0211-.0297.143-.0297.143l-.497 2.2135-.0427.1877-.0826.6141c0 .1822.0355.3308.1062.4566.2264.3986.8723.4583 1.2377.4583.4708 0 .9124-.1008 1.2108-.2847.518-.3084.6536-.7904.7744-1.2187l.056-.2197s.5015-2.0398.5866-2.3052c.0033-.0147.0046-.0225.009-.0295Zm1.706 1.6455c-.1209 0-.3418.0296-.5402.1275-.072.0373-.14.0803-.212.1231l.065-.2358-.0356-.0397c-.4208.0858-.515.0973-.9036.1524l-.0326.0219c-.045.377-.0852.6603-.2524 1.4013-.0637.273-.1299.5487-.1962.8211l.018.0347c.3982-.0212.519-.0212.8652-.0155l.028-.0307c.044-.227.0497-.28.1472-.7397.0457-.218.1412-.6968.1883-.8673.0865-.0404.1718-.0801.2533-.0801.194 0 .1704.1705.1629.2384-.0083.114-.079.4866-.1515.8064l-.0484.2065c-.0337.1524-.0707.3006-.1044.4518l.0146.0302c.3926-.0212.5123-.0212.8476-.0155l.0394-.0307c.0606-.3544.0784-.4493.1859-.9654l.054-.2371c.1051-.4641.1579-.6994.0784-.8911-.084-.2148-.2857-.2667-.471-.2667Zm1.9058.486c-.2087.0403-.3418.0672-.4741.0846a20.85 20.85 0 0 1-.4607.0686l-.0159.0146-.0147.0117c-.021.1513-.0357.282-.0635.4358-.0236.159-.06.3397-.1191.5993-.0458.1988-.0694.268-.0954.338-.0255.0698-.0535.1378-.1049.3332l.012.018.0101.0166c.1885-.009.3118-.0154.4385-.0165.1266-.0046.2577 0 .4607.0011l.0178-.0146.019-.016c.0293-.1763.0337-.2237.0517-.3097.0177-.0923.0483-.22.1234-.561.0355-.1601.0751-.3198.1119-.4832.0383-.1628.0784-.3232.1165-.4833l-.0057-.0194-.0076-.0179Zm.0044-.6552c-.1896-.1127-.5224-.077-.7464.0788-.2233.1526-.2487.3692-.0598.4834.1864.1096.5205.077.7425-.08.2228-.156.2507-.3706.0637-.4822Zm1.1467 2.611c.3836 0 .7769-.1065 1.0729-.4226.2277-.2563.3321-.6377.3683-.7948.1177-.5205.026-.7635-.0891-.9116-.175-.2256-.4842-.298-.8049-.298-.1929 0-.6523.0192-1.0111.3525-.2577.2405-.3768.5667-.4486.8795-.0725.3187-.1559.8924.3678 1.1059.1616.0699.3945.089.5447.089Zm-.03-1.1712c.0885-.3942.1929-.725.4594-.725.2088 0 .224.2461.1311.6416-.0166.0878-.0928.4142-.1959.5532-.072.1026-.1572.1647-.2514.1647-.028 0-.1946 0-.1972-.2492-.0013-.1231.0236-.2488.054-.3853Zm2.4301 1.1205.03-.0307c.0425-.227.0495-.2803.1437-.7398.0471-.218.1445-.6968.1903-.8673.0866-.0405.1705-.0802.2546-.0802.1927 0 .1692.1705.1616.2384-.007.1142-.0777.4866-.1515.8064l-.0458.2065c-.035.1526-.0731.3006-.1069.452l.0147.0301c.3939-.0212.509-.0212.8462-.0154l.0408-.0307c.0591-.3546.0751-.4495.1858-.9654l.0528-.2373c.1056-.4641.159-.6993.0808-.891-.0865-.2148-.2895-.2666-.4721-.2666-.121 0-.343.0294-.5403.1275a3.6 3.6 0 0 0-.2106.123l.0604-.2358-.0324-.0398c-.4206.086-.5167.0975-.9049.1526l-.0298.0218c-.0471.377-.0854.6602-.2527 1.4013a95.501 95.501 0 0 1-.1959.8212l.0177.0346c.399-.0212.518-.0212.8635-.0154Zm2.894.0153c.0248-.1217.1719-.8435.1732-.8435 0 0 .1252-.5295.1329-.5487 0 0 .0394-.0552.0788-.077h.058c.5472 0 1.1651 0 1.6494-.3589.3295-.2461.5548-.6096.6553-1.0514a1.598 1.598 0 0 0 .0453-.366c0-.1692-.0337-.3365-.1312-.4673-.2469-.348-.7387-.3545-1.3064-.3571l-.2799.0026c-.7266.009-1.0181.0064-1.1378-.0084-.0101.0534-.0291.1482-.0291.1482s-.2604 1.2154-.2604 1.2173l-.6522 2.7058c.6345-.0077.8946-.0077 1.0041.0044Zm.4823-2.159s.2768-1.2128.2755-1.2082l.009-.0622.0039-.0475.1106.0115s.5708.0494.5841.0507c.2253.0878.3182.3141.2533.6095-.0591.27-.2329.497-.4562.6066-.184.0928-.4092.1006-.6414.1006H18.42l.0114-.061Zm1.7232 1.0456c-.0731.3141-.1572.8878.3639 1.0923.1662.0712.3151.0924.4664.0847.1598-.0087.3079-.0895.4451-.2056l-.0372.1434.0236.0307c.3749-.016.4912-.016.8973-.0128l.0368-.0282c.0593-.3512.1152-.6922.2693-1.364.0751-.3219.15-.6406.227-.961l-.012-.0354c-.4193.0783-.5314.095-.9347.1527l-.0306.025c-.0041.0327-.0084.064-.0123.0954-.0627-.102-.1536-.1892-.2938-.2435-.1794-.071-.6006.0205-.9628.3526-.2544.2372-.3766.562-.446.8737Zm.8807.0192c.0897-.387.1928-.7146.46-.7146.1689 0 .2578.157.2398.4248a13.4697 13.4697 0 0 1-.0483.2168c-.0267.115-.0557.229-.0838.3433-.0287.0781-.0621.1518-.0988.2009-.0687.0981-.2323.159-.3264.159-.0267 0-.1916 0-.1973-.2449-.0013-.1219.0236-.2474.0548-.3853Zm4.5986-1.2782-.0324-.0373c-.4149.0847-.49.0982-.8712.15l-.028.0283c-.0013.0046-.0024.0116-.0044.018l-.0013-.0064c-.2837.6596-.2754.5173-.5064 1.0365-.0013-.0236-.0013-.0384-.0026-.0635l-.0579-1.1256-.0363-.0373c-.4346.0847-.4449.0982-.8462.15l-.0313.0283c-.0044.0134-.0044.0282-.007.0443l.0026.0057c.0502.2583.0381.2007.0884.6084.0235.2.0548.4012.0782.5988.0396.3306.0618.4934.1101.998-.271.4507-.3352.6212-.5962 1.0167l.0018.004-.1837.2927c-.021.0308-.0401.052-.0668.061-.0293.0146-.0674.0173-.1204.0173h-.1018l-.1513.507.5191.0091c.3048-.0014.4964-.1449.5995-.3379l.3264-.5636h-.0052l.0344-.0397c.2196-.4762 1.8899-3.3628 1.8899-3.3628Zm-5.4793 6.6598h-.2202l.8151-2.7161h.2704l.0859-.2798.0083.3111c-.0101.1923.1401.3628.5346.3346h.4563l.157-.523h-.1717c-.0987 0-.1445-.0251-.1388-.0789l-.0083-.3166h-.8449v.0017c-.2732.0057-1.089.0264-1.2542.0707-.1998.0519-.4105.2045-.4105.2045l.0828-.2802h-.7904l-.1647.5559-.826 2.7576h-.1603l-.1572.5192h1.5742l-.0528.1731h.7758l.0514-.1731h.2177l.1705-.5607Zm-.6459-2.1642c-.1265.0352-.3621.1422-.3621.1422l.2095-.6941h.628l-.1515.5057s-.194.0115-.3239.0462Zm.0121.9916s-.1973.025-.3271.0545c-.1279.0391-.3677.1622-.3677.1622l.2164-.7224h.6312l-.1528.5057Zm-.3519 1.179h-.6299l.1826-.6097h.628l-.1807.6097Zm1.517-1.6847h.908l-.1305.4257h-.92l-.1381.4653h.805l-.6096.8647c-.0427.0635-.0809.086-.1234.1039-.0427.0218-.0988.0474-.1636.0474h-.2233l-.1535.5097h.5842c.3036 0 .483-.1391.6154-.3218l.418-.5763.0897.5852a.2749.2749 0 0 0 .1502.1987c.0585.0295.119.0803.2043.0878.0916.0039.1577.0071.2017.0071h.287l.1723-.5705h-.1132c-.065 0-.1769-.011-.1959-.0315-.0191-.0249-.0191-.0633-.0293-.1217l-.0911-.5865h-.3729l.1636-.1962h.9182l.1413-.4653h-.8502l.1324-.4257h.8476l.1572-.525h-2.5269l-.1546.525Zm-7.6689 1.8032.2119-.7103h.871l.1592-.5282h-.8718l.1331-.4372h.8519l.1579-.5115h-2.1317l-.1546.5115h.4843l-.1292.4372h-.4856l-.1609.5373h.4841l-.2825.9396c-.0381.1244.018.1718.0535.2296.0363.0563.0731.0936.1559.1147.0853.0192.1438.0307.2233.0307h.9819l.175-.5852-.4353.0602c-.084 0-.3168-.0101-.2914-.0884Zm.0999-3.4-.2207.4018c-.0473.0878-.0898.1423-.1281.1674-.0337.0212-.1005.0301-.1972.0301h-.1152l-.1539.5141h.3825c.1839 0 .3251-.0679.3925-.1019.0725-.0391.0916-.0168.1476-.0712l.1292-.1128h1.1944l.1585-.5353h-.8743l.1526-.2922h-.8679Zm1.7633 3.4103c-.0204-.0295-.0057-.0815.0254-.1899l.3264-1.0885h1.1613c.1693-.0024.2915-.0044.3709-.0101.0854-.0091.1783-.0397.2794-.0949.1044-.0578.1579-.1186.203-.1885.0503-.0698.1311-.2224.2005-.4577l.4104-1.3775-1.2052.007s-.371.0552-.5344.116c-.1649.068-.4004.2577-.4004.2577l.1088-.3776h-.7445l-1.0422 3.4821c-.0369.1352-.0617.2334-.0674.2923-.002.0635.0795.1264.1323.1738.0624.0474.1546.0397.243.0474.093.0071.2253.0115.4079.0115h.5721l.1756-.5973-.5122.0487c-.0547 0-.0943-.0295-.1107-.0545Zm.5625-2.0135h1.2197l-.0775.2448c-.0109.0057-.037-.0121-.1611.0026h-1.0562l.0751-.2474Zm.2443-.8212h1.23l-.0884.2949s-.5798-.0058-.6726.0115c-.4086.0712-.6472.2911-.6472.2911l.1782-.5975Zm.9252 1.8859c-.0101.0366-.0261.0589-.0484.0757-.0247.016-.0648.0218-.1246.0218h-.1738l.0103-.2982h-.723l-.0293 1.4577c-.0011.1052.009.1661.0854.2149.0764.0608.3117.0686.6286.0686h.453l.1635-.5457-.3943.0218-.1312.0077c-.0179-.0077-.035-.0147-.054-.0339-.0167-.0166-.0447-.0064-.0401-.1116l.0031-.3737.4136-.0172c.2233 0 .3188-.0732.4002-.1429.0777-.0668.1031-.1436.1324-.2475l.0694-.3308h-.5683l-.0725.2333Z" fill="#FEFEFE"/></g><defs><clipPath id="a"><path fill="#fff" transform="translate(.903 .378)" d="M0 0h26.8256v16.8902H0z"/></clipPath></defs></svg>